<svg id="visual" viewBox="0 0 960 540" width="960" height="540" xmlns="http://www.w3.org/2000/svg" xmlns:xlink="http://www.w3.org/1999/xlink" version="1.1"><rect x="0" y="0" width="960" height="540" fill="#fff"></rect><path d="M0 349L32 351.7C64 354.3 128 359.7 192 364C256 368.3 320 371.7 384 366C448 360.3 512 345.7 576 345.5C640 345.3 704 359.7 768 361.8C832 364 896 354 928 349L960 344L960 541L928 541C896 541 832 541 768 541C704 541 640 541 576 541C512 541 448 541 384 541C320 541 256 541 192 541C128 541 64 541 32 541L0 541Z" fill="#a0b1ff"></path><path d="M0 424L32 421.2C64 418.3 128 412.7 192 401.5C256 390.3 320 373.7 384 369.8C448 366 512 375 576 383C640 391 704 398 768 397.7C832 397.3 896 389.7 928 385.8L960 382L960 541L928 541C896 541 832 541 768 541C704 541 640 541 576 541C512 541 448 541 384 541C320 541 256 541 192 541C128 541 64 541 32 541L0 541Z" fill="#8892f6"></path><path d="M0 401L32 402.7C64 404.3 128 407.7 192 417.3C256 427 320 443 384 451C448 459 512 459 576 458.5C640 458 704 457 768 452.5C832 448 896 440 928 436L960 432L960 541L928 541C896 541 832 541 768 541C704 541 640 541 576 541C512 541 448 541 384 541C320 541 256 541 192 541C128 541 64 541 32 541L0 541Z" fill="#7672ea"></path><path d="M0 441L32 446.2C64 451.3 128 461.7 192 464.7C256 467.7 320 463.3 384 462.2C448 461 512 463 576 461.5C640 460 704 455 768 458C832 461 896 472 928 477.5L960 483L960 541L928 541C896 541 832 541 768 541C704 541 640 541 576 541C512 541 448 541 384 541C320 541 256 541 192 541C128 541 64 541 32 541L0 541Z" fill="#6a50da"></path><path d="M0 514L32 509C64 504 128 494 192 493.3C256 492.7 320 501.3 384 503.7C448 506 512 502 576 500.5C640 499 704 500 768 499.2C832 498.3 896 495.7 928 494.3L960 493L960 541L928 541C896 541 832 541 768 541C704 541 640 541 576 541C512 541 448 541 384 541C320 541 256 541 192 541C128 541 64 541 32 541L0 541Z" fill="#6424c7"></path></svg>